<svg width="152" height="141" viewBox="0 0 152 141" fill="none" xmlns="http://www.w3.org/2000/svg">
<path d="M44.4174 141.009C68.9487 141.009 88.8348 121.123 88.8348 96.5915C88.8348 72.0601 68.9487 52.1741 44.4174 52.1741C19.8861 52.1741 0 72.0601 0 96.5915C0 121.123 19.8861 141.009 44.4174 141.009Z" fill="#97CE26"/>
<path d="M125.163 135.39C139.985 135.39 152 123.375 152 108.553C152 93.7313 139.985 81.7168 125.163 81.7168C110.343 81.7168 98.3276 93.7313 98.3276 108.553C98.3276 123.375 110.342 135.39 125.163 135.39Z" fill="#A169F6"/>
<path d="M52.909 42.6806C62.0828 42.6806 69.5197 35.2437 69.5197 26.0709C69.5197 16.8971 62.0828 9.46021 52.909 9.46021C43.7353 9.46021 36.2993 16.8971 36.2993 26.0709C36.2993 35.2437 43.7353 42.6806 52.909 42.6806Z" fill="#FE6163"/>
<path d="M114.731 72.2251C134.676 72.2251 150.844 56.0575 150.844 36.113C150.844 16.1676 134.676 0 114.731 0C94.7858 0 78.6182 16.1686 78.6182 36.113C78.6182 56.0575 94.7867 72.2251 114.731 72.2251Z" fill="#01AAFE"/>
</svg>
